<?xml version="1.0" standalone="no"?>
<!DOCTYPE svg PUBLIC "-//W3C//DTD SVG 20010904//EN"
 "http://www.w3.org/TR/2001/REC-SVG-20010904/DTD/svg10.dtd">
<svg version="1.0" xmlns="http://www.w3.org/2000/svg"
 width="1024.000000pt" height="1024.000000pt" viewBox="0 0 1024.000000 1024.000000"
 preserveAspectRatio="xMidYMid meet">
<metadata>
Created by potrace 1.14, written by Peter Selinger 2001-2017
</metadata>
<g transform="translate(0.000000,1024.000000) scale(0.100000,-0.100000)"
fill="#000000" stroke="none">
<path d="M961 9105 c-114 -30 -252 -96 -342 -164 -95 -73 -258 -246 -312 -333
-58 -92 -93 -175 -123 -293 l-24 -90 0 -2448 c0 -2431 0 -2449 20 -2530 53
-209 137 -352 307 -518 148 -145 240 -205 403 -263 162 -59 4 -56 3210 -56
l2945 0 160 -160 160 -160 -2286 0 -2285 0 -37 -38 -37 -38 0 -400 0 -400 38
-37 38 -37 2325 0 2325 0 37 38 37 38 0 359 0 359 643 -640 c510 -509 652
-646 692 -665 45 -21 67 -24 216 -27 171 -4 185 -2 266 41 25 14 598 578 598
589 0 5 13 17 29 27 32 21 58 56 86 118 17 36 20 64 20 190 0 149 -12 214 -49
283 -8 14 -149 161 -314 327 -165 167 -299 304 -296 307 2 2 33 18 69 36 95
48 153 91 268 204 153 150 231 264 284 416 50 145 48 14 48 2638 l0 2447 -25
99 c-28 110 -74 216 -131 303 -49 74 -219 250 -304 315 -89 68 -227 133 -344
163 l-99 25 -4061 0 -4061 -1 -94 -24z m3086 -1030 c0 -8 -4 -12 -9 -9 -5 3
-6 10 -3 15 9 13 12 11 12 -6z m868 -235 c-3 -5 -12 -10 -18 -10 -7 0 -6 4 3
10 19 12 23 12 15 0z m-3325 -474 c0 -3 -4 -8 -10 -11 -5 -3 -10 -1 -10 4 0 6
5 11 10 11 6 0 10 -2 10 -4z m535 -594 c-3 -3 -11 0 -18 7 -9 10 -8 11 6 5 10
-3 15 -9 12 -12z m3159 -1750 c3 -5 -1 -9 -9 -9 -8 0 -12 4 -9 9 3 4 7 8 9 8
2 0 6 -4 9 -8z m-1039 -30 c-3 -3 -11 0 -18 7 -9 10 -8 11 6 5 10 -3 15 -9 12
-12z m99 10 c3 -5 -1 -9 -9 -9 -8 0 -12 4 -9 9 3 4 7 8 9 8 2 0 6 -4 9 -8z
m-1484 -78 c0 -8 -19 -13 -24 -6 -3 5 1 9 9 9 8 0 15 -2 15 -3z m-846 -1442
c3 -5 -1 -9 -9 -9 -8 0 -12 4 -9 9 3 4 7 8 9 8 2 0 6 -4 9 -8z"/>
</g>
</svg>
