<svg xmlns="http://www.w3.org/2000/svg" version="1.1" xmlns:xlink="http://www.w3.org/1999/xlink" xmlns:svgjs="http://svgjs.com/svgjs" width="400" height="400"><svg id="SvgjsSvg1010" version="1.1" xmlns="http://www.w3.org/2000/svg" xmlns:xlink="http://www.w3.org/1999/xlink" width="400" height="400" viewBox="0, 0, 400,400"><g id="SvgjsG1009"><path id="SvgjsPath1008" d="M41.169 50.958 C 27.449 54.505,17.483 64.618,13.820 78.711 L 12.906 82.227 12.898 174.349 C 12.891 265.766,12.897 266.496,13.687 269.661 C 17.015 282.993,25.521 292.468,38.269 297.044 C 44.599 299.317,38.900 299.214,158.565 299.216 L 268.498 299.219 260.611 291.247 C 252.143 282.688,251.130 281.254,250.584 277.054 L 250.318 275.006 148.108 274.905 L 45.898 274.805 43.930 273.765 C 41.534 272.501,38.896 269.718,37.758 267.256 L 36.914 265.430 36.914 174.414 L 36.914 83.398 37.994 81.201 C 39.406 78.326,42.211 75.730,45.054 74.667 L 47.295 73.828 200.000 73.828 L 352.705 73.828 354.956 74.670 C 357.819 75.742,360.929 78.630,362.167 81.366 L 363.086 83.398 363.086 174.414 L 363.086 265.430 362.157 267.485 C 359.582 273.181,355.661 275.000,345.954 275.000 L 339.263 275.000 350.353 286.095 L 361.443 297.190 362.871 296.687 C 372.754 293.200,381.668 284.088,385.230 273.830 C 387.201 268.154,387.110 272.994,387.106 174.291 L 387.102 82.227 386.113 78.320 C 382.653 64.652,372.404 54.420,358.688 50.941 L 354.978 50.000 199.852 50.019 L 44.727 50.038 41.169 50.958 M257.666 207.638 C 232.703 212.598,217.943 238.021,225.816 262.494 C 226.814 265.595,227.996 266.797,230.047 266.797 C 233.349 266.797,234.577 264.292,233.208 260.352 C 223.854 233.425,250.222 207.058,277.148 216.412 C 282.073 218.122,285.889 214.275,282.715 210.800 C 279.993 207.820,265.781 206.026,257.666 207.638 M259.766 222.846 C 244.889 226.180,235.581 242.455,240.195 257.065 C 241.141 260.059,241.945 260.927,244.032 261.207 C 247.417 261.661,248.932 258.559,247.406 254.297 C 242.907 241.725,256.408 227.076,269.531 230.290 C 276.163 231.915,278.951 230.704,277.936 226.639 C 277.080 223.209,267.277 221.163,259.766 222.846 M263.086 237.843 C 257.720 239.264,254.531 243.430,254.527 249.023 C 254.524 253.662,255.702 255.469,258.731 255.469 C 261.726 255.469,262.700 254.019,262.288 250.176 C 262.028 247.750,262.054 247.652,263.251 246.454 C 264.449 245.257,264.547 245.231,266.972 245.491 C 270.944 245.917,272.266 244.953,272.266 241.630 C 272.266 238.588,267.576 236.653,263.086 237.843 M285.352 240.367 C 282.179 241.417,280.935 242.481,270.033 253.451 C 257.102 266.465,256.836 266.844,256.836 272.266 C 256.836 278.452,253.510 274.695,301.858 323.120 C 325.436 346.736,345.617 366.748,346.705 367.591 C 350.298 370.376,355.164 371.159,359.557 369.659 C 362.596 368.621,385.441 345.730,386.487 342.674 C 387.476 339.784,387.242 334.895,385.988 332.227 C 384.568 329.203,297.610 242.547,294.553 241.108 C 292.011 239.912,287.759 239.569,285.352 240.367 M295.042 256.442 C 302.950 258.502,308.538 265.232,308.917 273.152 C 309.013 275.154,308.908 276.984,308.671 277.473 C 308.445 277.939,308.156 278.954,308.029 279.729 C 306.532 288.873,292.728 294.949,283.496 290.527 C 263.891 281.137,274.104 250.988,295.042 256.442 M286.523 264.993 C 276.874 269.555,280.084 284.033,290.745 284.033 C 296.898 284.033,300.889 280.069,300.854 273.991 C 300.811 266.495,293.310 261.785,286.523 264.993 M324.525 282.709 C 327.332 284.012,329.279 287.897,328.507 290.652 C 327.252 295.131,322.083 297.842,318.438 295.932 C 309.713 291.361,315.604 278.567,324.525 282.709 M309.770 298.397 C 315.460 302.218,314.046 309.819,307.286 311.758 C 304.203 312.642,299.803 309.740,298.913 306.234 C 297.353 300.086,304.549 294.891,309.770 298.397 M112.891 336.914 L 112.891 348.828 200.000 348.828 L 287.109 348.828 287.109 336.914 L 287.109 325.000 200.000 325.000 L 112.891 325.000 112.891 336.914 " stroke="none" fill="#010100" fill-rule="evenodd"></path><path id="SvgjsPath1007" d="M37.533 44.348 C 23.468 47.981,10.945 60.708,7.180 75.195 L 6.266 78.711 6.258 174.349 C 6.250 269.304,6.256 270.010,7.046 273.177 C 10.452 286.819,21.423 298.899,34.753 303.685 C 41.095 305.962,34.921 305.855,160.161 305.857 L 275.204 305.859 281.445 312.109 L 287.686 318.359 198.415 318.359 L 109.143 318.359 107.696 319.841 L 106.250 321.322 106.250 336.949 L 106.250 352.576 107.731 354.022 L 109.213 355.469 200.035 355.469 L 290.857 355.469 292.304 353.987 L 293.750 352.506 293.750 338.473 L 293.750 324.439 318.848 349.464 C 348.462 378.993,344.945 376.367,354.883 376.367 C 364.216 376.367,362.608 377.365,378.361 361.800 C 394.131 346.219,393.359 347.412,393.359 338.605 C 393.359 328.803,394.056 329.956,378.961 314.755 C 372.619 308.368,367.507 303.072,367.602 302.985 C 367.696 302.898,368.916 302.257,370.313 301.561 C 379.177 297.142,388.717 286.427,391.870 277.346 C 393.844 271.664,393.750 276.786,393.746 174.291 L 393.743 78.711 392.762 74.859 C 389.155 60.703,376.390 47.899,362.324 44.331 L 358.494 43.359 199.852 43.379 L 41.211 43.398 37.533 44.348 M358.688 50.941 C 372.404 54.420,382.653 64.652,386.113 78.320 L 387.102 82.227 387.106 174.291 C 387.110 272.994,387.201 268.154,385.230 273.830 C 381.668 284.088,372.754 293.200,362.871 296.687 L 361.443 297.190 350.353 286.095 L 339.263 275.000 345.954 275.000 C 355.661 275.000,359.582 273.181,362.157 267.485 L 363.086 265.430 363.086 174.414 L 363.086 83.398 362.167 81.366 C 360.929 78.630,357.819 75.742,354.956 74.670 L 352.705 73.828 200.000 73.828 L 47.295 73.828 45.054 74.667 C 42.211 75.730,39.406 78.326,37.994 81.201 L 36.914 83.398 36.914 174.414 L 36.914 265.430 37.758 267.256 C 38.896 269.718,41.534 272.501,43.930 273.765 L 45.898 274.805 148.100 274.905 L 250.301 275.006 250.536 275.882 C 250.665 276.364,250.775 277.285,250.780 277.930 C 250.802 280.757,252.475 283.024,260.618 291.254 L 268.498 299.219 158.565 299.216 C 38.900 299.214,44.599 299.317,38.269 297.044 C 25.521 292.468,17.015 282.993,13.687 269.661 C 12.897 266.496,12.891 265.766,12.898 174.349 L 12.906 82.227 13.820 78.711 C 17.483 64.618,27.449 54.505,41.169 50.958 L 44.727 50.038 199.852 50.019 L 354.978 50.000 358.688 50.941 M352.300 81.614 C 354.158 82.453,354.526 82.821,355.425 84.739 L 356.445 86.914 356.445 174.414 L 356.445 261.914 355.424 264.092 C 353.684 267.802,352.588 268.136,341.651 268.289 L 332.715 268.413 316.260 252.037 C 296.661 232.533,298.527 233.792,289.221 233.790 L 283.325 233.789 283.884 232.452 C 284.281 231.500,284.404 229.950,284.311 227.080 C 284.226 224.477,284.323 223.046,284.584 223.046 C 285.102 223.047,288.837 219.212,289.408 218.092 C 289.651 217.616,289.844 215.319,289.844 212.900 L 289.844 208.560 288.054 206.647 L 286.265 204.734 289.910 204.889 C 292.767 205.011,293.175 204.970,291.797 204.700 C 290.830 204.510,289.063 204.342,287.871 204.326 C 286.679 204.310,285.536 204.146,285.332 203.961 C 284.927 203.594,282.469 202.781,278.516 201.706 C 273.127 200.240,253.094 200.674,251.002 202.301 C 250.773 202.479,249.989 202.738,249.258 202.877 C 240.608 204.519,227.305 216.283,221.812 227.148 C 217.034 236.599,215.966 253.076,219.379 264.706 C 219.892 266.456,220.313 267.995,220.313 268.127 C 220.313 268.259,181.860 268.321,134.863 268.265 L 49.414 268.164 47.546 267.201 C 46.032 266.421,45.477 265.829,44.617 264.076 L 43.555 261.914 43.441 237.472 L 43.327 213.031 46.370 212.568 C 48.044 212.313,50.327 212.105,51.442 212.107 C 52.557 212.108,53.551 211.978,53.651 211.816 C 53.839 211.513,47.411 211.891,44.817 212.335 L 43.345 212.587 43.450 149.751 L 43.555 86.914 44.410 85.156 C 45.675 82.558,45.768 82.468,48.276 81.436 L 50.586 80.486 200.391 80.575 L 350.195 80.664 352.300 81.614 M105.859 161.873 C 105.859 161.958,106.548 162.093,107.389 162.173 C 108.230 162.253,108.835 162.184,108.733 162.019 C 108.548 161.719,105.859 161.582,105.859 161.873 M115.807 164.534 C 116.444 165.026,117.938 166.304,119.127 167.372 C 121.217 169.249,121.237 169.258,119.727 167.629 C 118.867 166.702,117.373 165.425,116.406 164.791 C 115.439 164.156,115.170 164.041,115.807 164.534 M122.928 172.456 C 123.285 173.205,123.647 173.749,123.732 173.664 C 123.910 173.486,122.725 171.094,122.457 171.094 C 122.359 171.094,122.571 171.707,122.928 172.456 M88.915 178.335 C 88.781 178.685,88.691 179.527,88.715 180.208 C 88.752 181.286,88.801 181.222,89.097 179.712 C 89.446 177.935,89.349 177.204,88.915 178.335 M125.217 188.889 C 125.070 189.673,125.028 190.392,125.123 190.488 C 125.219 190.583,125.417 190.020,125.564 189.236 C 125.711 188.452,125.754 187.733,125.658 187.637 C 125.563 187.542,125.364 188.105,125.217 188.889 M89.481 191.286 C 89.465 191.756,89.629 192.250,89.844 192.383 C 90.306 192.668,90.306 192.286,89.844 191.211 C 89.520 190.458,89.507 190.460,89.481 191.286 M94.336 199.965 C 95.152 200.907,98.047 203.304,98.047 203.037 C 98.047 202.953,97.036 202.024,95.801 200.973 C 94.565 199.923,93.906 199.469,94.336 199.965 M114.844 203.711 C 113.877 204.229,113.225 204.660,113.394 204.670 C 113.809 204.694,116.797 203.159,116.797 202.922 C 116.797 202.663,116.813 202.656,114.844 203.711 M187.109 203.923 C 185.928 204.086,180.918 204.252,175.977 204.292 C 171.035 204.333,166.113 204.502,165.039 204.669 C 162.836 205.011,179.700 204.807,184.570 204.432 C 186.289 204.300,198.418 204.074,211.523 203.930 L 235.352 203.668 212.305 203.647 C 199.629 203.635,188.291 203.759,187.109 203.923 M145.508 205.466 C 144.648 205.619,147.900 205.657,152.734 205.552 C 157.568 205.447,161.597 205.297,161.686 205.219 C 161.987 204.958,147.088 205.186,145.508 205.466 M295.422 205.366 C 296.449 205.446,298.031 205.445,298.938 205.364 C 299.844 205.282,299.004 205.216,297.070 205.217 C 295.137 205.218,294.395 205.285,295.422 205.366 M129.719 206.244 C 130.089 206.461,132.985 206.479,136.945 206.291 L 143.555 205.977 136.328 205.930 C 131.742 205.900,129.327 206.015,129.719 206.244 M115.625 207.031 L 113.867 207.305 115.918 207.363 C 117.064 207.396,117.969 207.250,117.969 207.031 C 117.969 206.816,117.837 206.667,117.676 206.699 C 117.515 206.732,116.592 206.881,115.625 207.031 M269.932 207.064 C 271.753 207.296,273.770 207.541,274.414 207.608 C 276.687 207.845,281.829 209.818,282.715 210.794 C 285.948 214.356,281.687 218.601,276.959 216.527 C 271.694 214.217,259.603 214.056,255.323 216.239 C 254.651 216.581,253.685 216.942,253.175 217.041 C 252.301 217.210,251.553 217.578,247.889 219.647 C 247.050 220.120,245.819 221.028,245.154 221.663 C 244.489 222.298,243.823 222.785,243.674 222.744 C 243.303 222.643,238.274 228.257,237.305 229.854 C 236.875 230.561,236.033 231.939,235.434 232.916 C 234.835 233.892,234.270 235.077,234.179 235.549 C 234.088 236.022,233.854 236.610,233.659 236.856 C 233.220 237.413,232.490 239.650,232.240 241.211 C 232.136 241.855,231.880 243.320,231.669 244.466 C 231.069 247.733,231.558 256.050,232.419 257.227 C 232.689 257.596,233.272 259.504,233.374 260.352 C 233.400 260.566,233.561 261.313,233.733 262.010 C 234.666 265.795,230.424 268.494,227.593 265.918 C 226.470 264.896,224.251 258.370,223.979 255.292 C 223.463 249.441,223.794 242.941,224.807 239.063 C 225.172 237.666,225.536 236.169,225.617 235.736 C 225.697 235.303,226.207 234.030,226.749 232.906 C 227.291 231.783,227.734 230.702,227.734 230.505 C 227.734 230.308,228.350 229.212,229.102 228.070 C 229.854 226.929,230.469 225.843,230.469 225.657 C 230.469 225.472,231.260 224.394,232.227 223.262 C 233.193 222.131,233.984 221.102,233.984 220.976 C 233.984 220.092,241.630 213.971,244.597 212.479 C 245.528 212.011,246.553 211.421,246.875 211.168 C 247.197 210.915,248.164 210.476,249.023 210.192 C 249.883 209.908,251.113 209.446,251.758 209.165 C 253.982 208.195,258.411 207.304,262.305 207.043 C 264.453 206.900,266.303 206.750,266.416 206.711 C 266.530 206.672,268.112 206.831,269.932 207.064 M104.297 207.397 C 104.297 207.598,103.726 207.834,103.027 207.921 C 101.777 208.076,101.780 208.079,103.223 208.141 C 104.292 208.186,104.688 208.045,104.688 207.617 C 104.688 207.295,104.600 207.031,104.492 207.031 C 104.385 207.031,104.297 207.196,104.297 207.397 M96.834 207.983 C 96.740 208.077,93.591 208.351,89.836 208.591 C 86.080 208.831,80.723 209.199,77.930 209.408 C 75.137 209.616,70.742 209.938,68.164 210.123 C 65.586 210.308,62.949 210.655,62.305 210.893 C 61.230 211.291,61.278 211.308,62.891 211.100 C 64.992 210.828,72.784 210.222,90.234 208.971 C 93.350 208.748,97.217 208.421,98.828 208.246 L 101.758 207.927 99.382 207.870 C 98.075 207.838,96.928 207.889,96.834 207.983 M271.680 222.921 C 273.184 223.237,274.678 223.530,275.000 223.572 C 278.146 223.979,279.298 228.855,276.697 230.757 C 275.877 231.356,272.895 231.405,271.833 230.837 C 270.247 229.988,262.504 229.677,261.557 230.423 C 261.324 230.607,260.506 230.870,259.739 231.008 C 256.010 231.679,248.047 239.304,248.047 242.204 C 248.047 242.559,247.769 243.407,247.428 244.089 C 246.690 245.568,246.597 251.782,247.281 253.906 C 248.613 258.042,248.334 259.935,246.252 260.883 C 243.173 262.286,240.070 259.760,239.601 255.469 C 238.701 247.224,239.034 243.062,240.927 238.915 C 241.406 237.867,241.797 236.884,241.797 236.730 C 241.797 233.887,250.702 225.941,256.055 224.008 C 257.129 223.620,258.228 223.136,258.496 222.932 C 258.765 222.728,258.984 222.630,258.984 222.714 C 258.984 222.798,260.522 222.675,262.402 222.441 C 266.125 221.976,267.534 222.049,271.680 222.921 M268.024 237.750 C 271.359 238.283,273.222 240.957,272.195 243.735 C 271.739 244.967,268.713 246.209,267.391 245.706 C 264.078 244.447,262.015 246.302,262.328 250.259 C 262.680 254.718,260.072 256.914,256.619 255.067 C 253.223 253.249,253.869 244.727,257.696 240.854 C 259.577 238.950,264.380 236.915,265.952 237.355 C 266.239 237.436,267.172 237.613,268.024 237.750 M295.508 241.488 C 298.377 242.912,384.817 329.773,386.158 332.580 C 387.644 335.690,387.608 340.475,386.074 343.628 C 385.123 345.583,366.567 364.731,362.305 368.155 C 358.196 371.456,351.393 371.227,346.763 367.633 C 343.083 364.776,259.125 280.396,258.286 278.711 C 257.119 276.367,256.310 273.326,256.511 272.040 C 257.473 265.899,257.575 265.758,270.260 253.067 C 282.381 240.940,283.131 240.391,288.212 239.907 C 291.329 239.610,292.028 239.762,295.508 241.488 M287.109 256.302 C 283.663 257.336,282.297 257.983,280.322 259.516 C 276.942 262.141,274.404 265.491,273.966 267.906 C 273.865 268.464,273.582 269.162,273.338 269.456 C 272.775 270.134,272.622 275.640,273.105 277.830 C 275.609 289.187,288.566 295.483,298.904 290.367 C 302.523 288.576,307.540 282.721,308.032 279.714 C 308.157 278.948,308.443 277.943,308.667 277.481 C 309.052 276.688,308.940 272.452,308.461 269.663 C 307.510 264.129,300.507 257.295,294.907 256.438 C 291.895 255.976,288.399 255.915,287.109 256.302 M295.608 265.115 C 301.459 267.850,302.872 275.967,298.374 281.013 C 297.308 282.209,296.315 283.155,296.167 283.115 C 296.019 283.075,295.195 283.283,294.336 283.577 C 290.366 284.933,285.289 283.620,283.025 280.652 C 276.204 271.709,285.405 260.348,295.608 265.115 M319.531 282.129 C 312.899 284.148,312.224 292.676,318.438 295.932 C 323.237 298.446,329.826 293.063,328.482 287.725 C 327.469 283.702,323.178 281.019,319.531 282.129 M303.346 297.883 C 296.776 300.290,297.475 309.911,304.346 311.641 C 311.003 313.318,316.034 305.044,311.445 299.965 C 308.983 297.239,306.704 296.654,303.346 297.883 M287.109 336.914 L 287.109 348.828 200.000 348.828 L 112.891 348.828 112.891 336.914 L 112.891 325.000 200.000 325.000 L 287.109 325.000 287.109 336.914 " stroke="none" fill="#e4e5e4" fill-rule="evenodd"></path><path id="SvgjsPath1006" d="M341.797 105.664 C 342.526 106.416,343.210 107.031,343.317 107.031 C 343.425 107.031,342.916 106.416,342.188 105.664 C 341.459 104.912,340.774 104.297,340.667 104.297 C 340.560 104.297,341.068 104.912,341.797 105.664 M55.969 125.288 C 56.996 125.368,58.578 125.367,59.484 125.285 C 60.391 125.204,59.551 125.137,57.617 125.139 C 55.684 125.140,54.942 125.207,55.969 125.288 M86.044 155.469 C 86.044 156.436,86.120 156.831,86.213 156.348 C 86.306 155.864,86.306 155.073,86.213 154.590 C 86.120 154.106,86.044 154.502,86.044 155.469 M86.036 162.305 C 86.040 163.164,86.120 163.470,86.214 162.984 C 86.307 162.498,86.304 161.795,86.206 161.421 C 86.108 161.048,86.032 161.445,86.036 162.305 M330.195 163.281 C 330.195 164.463,330.268 164.946,330.358 164.355 C 330.447 163.765,330.447 162.798,330.358 162.207 C 330.268 161.616,330.195 162.100,330.195 163.281 M105.021 162.537 C 98.472 163.255,92.597 168.679,90.044 176.367 C 89.083 179.260,88.295 185.826,88.958 185.416 C 89.164 185.289,89.442 183.530,89.575 181.508 C 89.828 177.659,89.972 177.143,91.932 173.092 C 93.775 169.284,98.599 164.453,100.559 164.453 C 100.896 164.453,101.172 164.277,101.172 164.063 C 101.172 163.848,101.689 163.672,102.321 163.672 C 102.953 163.672,103.578 163.496,103.711 163.281 C 103.844 163.066,105.514 162.891,107.422 162.891 C 109.330 162.891,111.000 163.066,111.133 163.281 C 111.266 163.496,111.699 163.672,112.096 163.672 C 115.484 163.672,123.876 172.543,123.834 176.080 C 123.831 176.351,123.989 176.878,124.186 177.251 C 124.842 178.492,125.491 183.417,125.231 185.178 C 125.090 186.133,124.876 187.705,124.754 188.672 C 124.633 189.639,124.375 190.597,124.181 190.801 C 123.987 191.005,123.828 191.576,123.828 192.070 C 123.828 192.564,123.652 192.969,123.438 192.969 C 123.223 192.969,123.047 193.216,123.047 193.518 C 123.047 195.386,117.006 202.734,115.470 202.734 C 115.126 202.734,114.844 202.910,114.844 203.125 C 114.844 203.340,114.503 203.516,114.086 203.516 C 113.669 203.516,113.219 203.691,113.086 203.906 C 112.953 204.121,112.426 204.297,111.914 204.297 C 111.402 204.297,110.875 204.473,110.742 204.688 C 110.609 204.902,110.135 205.078,109.688 205.078 C 108.937 205.078,108.894 205.233,109.122 207.129 C 109.257 208.257,109.370 211.494,109.372 214.323 L 109.375 219.466 110.547 219.984 C 111.191 220.270,111.719 220.636,111.719 220.798 C 111.719 220.961,112.193 221.094,112.773 221.094 C 113.580 221.094,113.720 221.201,113.370 221.552 C 113.020 221.902,112.675 221.902,111.906 221.552 C 110.553 220.935,108.227 220.996,107.031 221.680 C 105.745 222.415,105.441 222.402,105.740 221.622 C 106.001 220.944,105.968 220.945,101.074 221.726 C 98.897 222.074,99.281 221.304,101.660 220.552 C 104.786 219.563,104.617 219.962,104.823 213.079 C 104.926 209.645,104.929 207.122,104.830 207.472 C 104.681 207.995,103.838 208.149,100.078 208.340 C 97.564 208.467,93.047 208.752,90.039 208.973 C 87.031 209.194,82.285 209.542,79.492 209.746 C 76.699 209.950,71.953 210.324,68.945 210.577 C 65.938 210.831,62.949 211.059,62.305 211.085 L 61.133 211.133 61.028 201.846 L 60.923 192.558 61.809 192.202 C 62.348 191.986,62.458 191.837,62.090 191.822 C 60.671 191.764,60.547 192.533,60.547 201.391 C 60.547 214.519,60.712 214.955,66.323 216.611 C 69.716 217.612,69.845 217.670,69.075 217.856 C 68.717 217.943,67.098 217.740,65.478 217.405 C 61.274 216.537,59.302 216.623,57.031 217.773 C 54.653 218.979,54.600 218.979,55.150 217.772 C 55.828 216.283,55.436 216.225,50.808 217.130 C 43.451 218.569,43.188 218.225,49.677 215.653 C 53.794 214.022,54.297 213.624,54.297 211.999 C 54.297 211.356,54.193 211.276,53.828 211.641 C 53.570 211.898,52.472 212.108,51.387 212.107 C 50.302 212.105,48.044 212.313,46.370 212.568 L 43.327 213.031 43.441 237.472 L 43.555 261.914 44.617 264.076 C 45.477 265.829,46.032 266.421,47.546 267.201 L 49.414 268.164 102.243 268.267 L 155.072 268.370 160.885 266.436 C 182.763 259.157,190.537 245.951,179.782 234.334 C 172.268 226.217,153.043 216.893,131.445 210.891 C 130.586 210.652,129.443 210.302,128.906 210.114 C 123.748 208.306,119.949 207.623,114.844 207.586 L 109.570 207.548 109.452 206.565 C 109.347 205.691,109.542 205.525,111.210 205.073 C 133.809 198.941,128.144 160.004,105.021 162.537 M287.407 169.808 C 287.893 169.901,288.596 169.897,288.969 169.800 C 289.343 169.702,288.945 169.625,288.086 169.630 C 287.227 169.634,286.921 169.714,287.407 169.808 M334.936 174.707 L 333.789 175.977 335.059 174.829 C 335.757 174.198,336.328 173.627,336.328 173.560 C 336.328 173.258,336.006 173.524,334.936 174.707 M349.512 173.713 C 349.995 173.806,350.786 173.806,351.270 173.713 C 351.753 173.620,351.357 173.544,350.391 173.544 C 349.424 173.544,349.028 173.620,349.512 173.713 M318.080 175.586 C 318.083 176.660,318.159 177.053,318.249 176.459 C 318.339 175.866,318.336 174.987,318.244 174.506 C 318.151 174.026,318.078 174.512,318.080 175.586 M81.788 176.660 C 81.428 177.358,80.878 178.369,80.565 178.906 C 80.019 179.843,80.022 179.851,80.653 179.102 C 81.424 178.187,82.917 175.391,82.635 175.391 C 82.529 175.391,82.148 175.962,81.788 176.660 M331.739 186.914 C 331.743 187.773,331.823 188.079,331.917 187.593 C 332.010 187.107,332.007 186.404,331.909 186.031 C 331.811 185.657,331.735 186.055,331.739 186.914 M89.103 187.331 C 88.943 192.065,93.709 199.939,98.614 203.044 C 100.269 204.092,105.080 205.932,105.075 205.515 C 105.071 205.213,103.133 204.297,102.498 204.297 C 101.905 204.297,98.678 202.640,98.503 202.246 C 98.431 202.085,98.142 201.953,97.861 201.953 C 96.944 201.953,93.193 197.489,91.941 194.906 C 90.772 192.496,90.331 191.185,89.510 187.695 C 89.167 186.236,89.141 186.212,89.103 187.331 M249.023 192.949 C 248.576 193.130,249.412 193.180,250.977 193.065 C 252.480 192.955,253.784 192.801,253.874 192.722 C 254.199 192.435,249.783 192.642,249.023 192.949 M267.090 196.760 C 267.573 196.853,268.364 196.853,268.848 196.760 C 269.331 196.667,268.936 196.591,267.969 196.591 C 267.002 196.591,266.606 196.667,267.090 196.760 M235.547 203.491 C 235.225 203.680,224.414 203.927,211.523 204.041 C 189.088 204.239,177.768 204.527,155.859 205.456 C 128.290 206.626,128.605 206.575,138.867 208.180 C 144.439 209.051,151.285 210.285,154.102 210.926 C 154.961 211.121,157.334 211.658,159.375 212.119 C 168.519 214.182,173.989 215.643,182.031 218.169 C 196.879 222.833,209.032 229.266,215.136 235.692 C 218.352 239.078,218.359 239.082,218.359 237.518 C 218.359 232.983,223.321 223.152,228.688 217.051 C 230.942 214.489,231.046 214.278,231.138 212.083 C 231.263 209.110,232.440 206.645,234.672 204.680 C 236.442 203.122,236.641 202.852,235.547 203.491 M287.988 206.564 L 289.844 208.560 289.844 212.893 C 289.844 217.835,289.619 218.476,286.977 221.046 C 286.006 221.992,285.309 222.991,285.420 223.281 C 285.531 223.569,285.415 225.027,285.163 226.520 C 284.803 228.658,284.809 229.429,285.194 230.145 C 285.463 230.645,285.790 231.582,285.922 232.227 L 286.162 233.398 290.640 233.617 C 298.492 234.001,297.209 233.078,316.260 252.037 L 332.715 268.413 341.651 268.289 C 352.588 268.136,353.684 267.802,355.424 264.092 L 356.445 261.914 356.557 237.088 L 356.668 212.263 353.041 211.764 C 348.040 211.075,342.816 209.835,338.357 208.277 C 333.127 206.450,335.815 212.370,341.984 216.268 C 345.159 218.274,343.894 218.553,339.188 216.886 C 334.794 215.330,331.181 213.180,328.146 210.317 L 325.495 207.817 324.047 209.183 C 321.155 211.910,316.591 214.533,311.222 216.554 C 309.767 217.101,307.972 217.836,307.233 218.187 C 304.609 219.433,305.206 218.510,309.222 215.116 C 316.835 208.682,316.671 206.358,308.721 208.015 C 307.040 208.365,303.730 208.990,301.367 209.403 C 296.328 210.283,294.065 210.754,292.190 211.312 C 288.292 212.473,290.774 210.443,297.194 207.219 L 300.443 205.588 294.850 205.316 C 291.774 205.167,288.555 204.938,287.695 204.807 L 286.133 204.568 287.988 206.564 M217.138 261.264 C 216.574 262.278,215.207 264.290,214.100 265.734 L 212.088 268.359 216.200 268.359 C 218.462 268.359,220.313 268.211,220.313 268.030 C 220.313 267.849,219.954 266.662,219.516 265.393 C 219.078 264.124,218.595 262.261,218.442 261.253 L 218.164 259.420 217.138 261.264 " stroke="none" fill="#bfcb51" fill-rule="evenodd"></path><path id="SvgjsPath1005" d="M319.922 99.239 C 310.918 101.718,304.976 107.023,302.336 114.941 L 301.457 117.578 298.287 117.582 C 289.695 117.594,282.921 122.539,279.671 131.172 C 279.353 132.018,278.229 133.187,276.409 134.568 C 260.690 146.492,269.856 170.870,289.505 169.396 C 294.318 169.035,299.365 166.473,302.660 162.720 C 304.115 161.063,304.098 161.064,306.568 162.305 C 307.637 162.842,308.706 163.281,308.943 163.281 C 309.181 163.281,309.375 163.413,309.376 163.574 C 309.376 163.735,310.113 163.918,311.014 163.980 C 311.914 164.042,312.837 164.238,313.064 164.416 C 315.319 166.182,326.160 162.187,330.024 158.166 L 331.547 156.580 333.645 157.632 C 336.422 159.023,337.109 159.679,337.109 160.932 C 337.109 161.507,337.548 162.842,338.084 163.899 C 338.621 164.956,339.060 166.128,339.061 166.504 C 339.062 166.880,339.235 167.188,339.446 167.188 C 339.656 167.188,339.935 167.609,340.064 168.125 C 341.024 171.948,351.086 174.850,355.371 172.539 L 356.641 171.855 356.641 143.768 L 356.641 115.681 354.590 114.917 C 353.462 114.497,351.484 113.938,350.195 113.675 C 347.391 113.103,347.180 112.948,345.429 110.173 C 339.869 101.361,329.054 96.725,319.922 99.239 M52.514 125.791 C 50.718 126.148,46.963 127.628,44.922 128.785 L 43.555 129.559 43.555 158.753 L 43.555 187.947 45.531 189.039 C 47.867 190.329,51.857 191.797,53.030 191.797 C 53.487 191.797,53.946 191.936,54.052 192.107 C 54.335 192.565,60.359 192.690,61.195 192.255 C 61.591 192.049,62.881 191.663,64.063 191.398 C 65.244 191.132,66.387 190.791,66.602 190.640 C 66.816 190.489,67.607 190.128,68.359 189.837 C 71.945 188.453,77.163 183.955,79.811 179.965 C 96.192 155.287,78.711 120.592,52.514 125.791 M103.711 163.281 C 103.578 163.496,102.953 163.672,102.321 163.672 C 101.689 163.672,101.172 163.848,101.172 164.063 C 101.172 164.277,100.896 164.453,100.559 164.453 C 98.603 164.453,93.785 169.274,91.923 173.092 C 90.063 176.907,89.869 177.622,89.507 181.982 C 89.086 187.039,89.696 190.277,91.941 194.906 C 93.193 197.489,96.944 201.953,97.861 201.953 C 98.142 201.953,98.431 202.085,98.503 202.246 C 98.691 202.670,101.927 204.297,102.581 204.297 C 103.094 204.297,104.625 205.015,105.078 205.469 C 105.740 206.130,109.665 205.540,110.723 204.620 C 110.927 204.442,111.488 204.297,111.969 204.297 C 112.451 204.297,112.953 204.121,113.086 203.906 C 113.219 203.691,113.669 203.516,114.086 203.516 C 114.503 203.516,114.844 203.340,114.844 203.125 C 114.844 202.910,115.126 202.734,115.470 202.734 C 117.006 202.734,123.047 195.386,123.047 193.518 C 123.047 193.216,123.223 192.969,123.438 192.969 C 123.652 192.969,123.828 192.564,123.828 192.070 C 123.828 191.576,123.987 191.005,124.181 190.801 C 124.375 190.597,124.633 189.639,124.754 188.672 C 124.876 187.705,125.090 186.133,125.231 185.178 C 125.491 183.417,124.842 178.492,124.186 177.251 C 123.989 176.878,123.831 176.351,123.834 176.080 C 123.876 172.543,115.484 163.672,112.096 163.672 C 111.699 163.672,111.266 163.496,111.133 163.281 C 111.000 163.066,109.330 162.891,107.422 162.891 C 105.514 162.891,103.844 163.066,103.711 163.281 M247.928 193.619 C 245.442 194.479,243.190 196.549,241.670 199.373 C 240.563 201.428,240.213 201.755,238.421 202.412 C 234.525 203.840,231.842 207.052,231.201 211.056 C 230.695 214.213,231.043 214.303,233.926 211.766 C 243.664 203.196,251.863 200.576,268.128 200.837 L 276.913 200.977 275.898 199.918 C 273.275 197.180,266.535 196.044,263.315 197.798 L 261.981 198.524 260.452 196.916 C 257.033 193.323,252.349 192.090,247.928 193.619 M313.086 207.320 C 313.730 207.414,314.521 207.695,314.844 207.945 C 315.354 208.340,315.360 208.310,314.894 207.715 C 314.563 207.293,313.890 207.054,313.136 207.090 L 311.914 207.148 313.086 207.320 M308.398 207.813 C 307.403 208.240,308.430 208.240,309.766 207.813 C 310.551 207.561,310.589 207.497,309.961 207.488 C 309.531 207.482,308.828 207.628,308.398 207.813 M324.264 208.691 L 323.381 209.961 324.415 208.831 L 325.450 207.700 327.862 210.002 L 330.273 212.305 327.942 209.863 C 325.217 207.010,325.394 207.067,324.264 208.691 M109.142 213.672 C 109.142 217.002,109.202 218.364,109.275 216.699 C 109.348 215.034,109.348 212.310,109.275 210.645 C 109.202 208.979,109.142 210.342,109.142 213.672 M304.297 208.594 C 303.524 208.841,303.483 208.906,304.102 208.906 C 304.531 208.906,305.322 208.766,305.859 208.594 C 306.633 208.346,306.673 208.281,306.055 208.281 C 305.625 208.281,304.834 208.422,304.297 208.594 M291.135 210.730 C 290.263 211.497,290.179 211.697,290.723 211.706 C 291.099 211.713,291.362 211.555,291.309 211.356 C 291.255 211.156,291.563 210.722,291.992 210.392 C 292.422 210.061,292.651 209.785,292.502 209.778 C 292.353 209.771,291.738 210.200,291.135 210.730 M295.898 210.156 C 295.406 210.368,295.334 210.492,295.703 210.492 C 296.025 210.492,296.641 210.341,297.070 210.156 C 297.563 209.945,297.635 209.821,297.266 209.821 C 296.943 209.821,296.328 209.972,295.898 210.156 M344.727 210.156 C 345.156 210.341,345.771 210.492,346.094 210.492 C 346.463 210.492,346.391 210.368,345.898 210.156 C 345.469 209.972,344.854 209.821,344.531 209.821 C 344.162 209.821,344.234 209.945,344.727 210.156 M320.593 211.492 C 318.287 213.088,317.739 213.648,319.440 212.668 C 320.752 211.913,323.004 210.179,322.656 210.192 C 322.549 210.196,321.620 210.781,320.593 211.492 M335.559 210.464 C 335.552 210.741,336.206 211.628,337.012 212.435 C 337.828 213.252,338.023 213.375,337.454 212.713 C 336.891 212.059,336.237 211.172,336.001 210.742 C 335.764 210.313,335.565 210.187,335.559 210.464 M348.047 210.938 C 348.584 211.110,349.463 211.247,350.000 211.243 C 350.877 211.236,350.857 211.205,349.805 210.938 C 348.152 210.517,346.734 210.517,348.047 210.938 M312.479 212.402 L 311.133 213.867 312.598 212.521 C 313.961 211.268,314.242 210.938,313.944 210.938 C 313.879 210.938,313.219 211.597,312.479 212.402 M60.605 212.334 C 60.549 213.498,61.398 214.646,62.891 215.423 C 63.213 215.591,62.912 215.221,62.223 214.602 C 61.483 213.938,60.906 212.996,60.816 212.305 L 60.664 211.133 60.605 212.334 M354.594 211.995 C 355.080 212.088,355.783 212.085,356.157 211.987 C 356.530 211.889,356.133 211.813,355.273 211.817 C 354.414 211.822,354.108 211.902,354.594 211.995 M54.297 212.798 C 54.297 213.033,54.021 213.502,53.683 213.839 C 53.345 214.177,53.251 214.453,53.474 214.453 C 53.969 214.453,54.840 212.913,54.524 212.597 C 54.399 212.472,54.297 212.562,54.297 212.798 M104.821 216.602 C 104.823 218.320,104.892 218.975,104.974 218.056 C 105.057 217.137,105.055 215.731,104.971 214.931 C 104.888 214.131,104.820 214.883,104.821 216.602 M309.546 214.941 L 308.398 216.211 309.668 215.064 C 310.851 213.994,311.117 213.672,310.815 213.672 C 310.748 213.672,310.177 214.243,309.546 214.941 M50.781 215.234 C 49.814 215.640,49.222 215.982,49.464 215.994 C 50.018 216.021,52.734 214.899,52.734 214.643 C 52.734 214.402,52.844 214.369,50.781 215.234 M312.988 215.463 C 312.290 215.768,311.719 216.108,311.719 216.217 C 311.719 216.421,314.459 215.359,314.791 215.027 C 315.123 214.694,314.277 214.899,312.988 215.463 M341.016 215.770 C 341.016 215.854,341.631 216.392,342.383 216.966 C 343.135 217.539,343.748 217.868,343.745 217.696 C 343.743 217.524,343.127 216.986,342.378 216.500 C 341.629 216.015,341.016 215.686,341.016 215.770 M59.017 216.550 C 59.106 216.629,60.410 216.783,61.914 216.893 C 63.479 217.008,64.314 216.958,63.867 216.777 C 63.107 216.470,58.692 216.263,59.017 216.550 M66.016 216.754 C 66.536 217.129,66.536 217.181,66.016 217.220 C 65.139 217.288,67.214 217.885,68.480 217.930 C 69.845 217.978,69.535 217.344,68.071 217.092 C 67.478 216.991,66.641 216.778,66.211 216.620 C 65.586 216.390,65.547 216.417,66.016 216.754 M56.540 217.611 C 56.162 217.831,55.697 217.915,55.507 217.797 C 55.316 217.679,55.059 217.845,54.936 218.166 C 54.813 218.487,54.838 218.743,54.993 218.734 C 55.466 218.706,58.034 217.221,57.617 217.216 C 57.402 217.213,56.918 217.391,56.540 217.611 M305.624 218.164 C 304.907 218.707,304.911 218.726,305.739 218.738 C 306.652 218.751,307.268 218.161,306.705 217.813 C 306.518 217.698,306.032 217.856,305.624 218.164 M101.225 220.662 C 100.776 220.947,100.776 221.037,101.225 221.244 C 101.518 221.379,101.274 221.397,100.684 221.284 C 100.080 221.169,99.609 221.253,99.609 221.477 C 99.609 221.952,101.439 221.957,102.539 221.484 C 103.236 221.185,103.244 221.146,102.614 221.121 C 102.225 221.106,102.016 220.918,102.148 220.703 C 102.443 220.226,101.948 220.204,101.225 220.662 M111.181 220.884 C 111.477 221.654,112.867 222.055,113.399 221.523 C 113.711 221.211,113.540 221.094,112.773 221.094 C 112.193 221.094,111.719 220.918,111.719 220.703 C 111.719 220.488,111.548 220.313,111.340 220.313 C 111.132 220.313,111.061 220.569,111.181 220.884 M284.302 227.102 C 284.387 229.953,284.260 231.551,283.872 232.479 L 283.321 233.798 284.775 233.660 C 286.350 233.510,286.464 232.522,285.184 230.129 C 284.811 229.433,284.797 228.657,285.123 226.786 C 285.694 223.505,285.662 223.047,284.863 223.046 C 284.248 223.045,284.192 223.452,284.302 227.102 M310.547 256.055 C 317.312 262.822,322.935 268.359,323.042 268.359 C 323.150 268.359,317.703 262.822,310.938 256.055 C 304.172 249.287,298.550 243.750,298.442 243.750 C 298.335 243.750,303.782 249.287,310.547 256.055 M263.860 259.473 L 259.961 263.477 263.965 259.578 C 266.167 257.433,267.969 255.631,267.969 255.574 C 267.969 255.291,267.481 255.754,263.860 259.473 " stroke="none" fill="#7a7b32" fill-rule="evenodd"></path><path id="SvgjsPath1004" d="M328.530 159.553 C 327.798 160.435,324.644 162.222,322.269 163.100 C 320.425 163.782,320.099 164.055,319.989 165.007 L 319.860 166.118 317.381 165.919 C 315.812 165.793,314.497 165.436,313.799 164.948 C 312.031 163.713,309.654 163.478,309.991 164.572 C 310.871 167.427,312.138 168.958,315.274 170.956 C 318.618 173.086,319.046 175.947,317.164 183.594 C 316.979 184.346,316.363 187.422,315.795 190.430 C 314.060 199.625,314.555 199.069,303.259 204.530 C 295.591 208.238,290.812 210.864,291.138 211.190 C 291.231 211.283,292.603 211.026,294.188 210.620 C 295.773 210.214,298.301 209.667,299.805 209.405 C 304.843 208.527,306.827 208.152,308.203 207.818 C 311.124 207.110,314.291 206.951,314.736 207.490 C 315.899 208.897,312.599 213.258,307.913 216.505 C 305.629 218.087,306.381 218.437,309.282 217.142 C 310.300 216.687,311.660 216.091,312.305 215.817 C 318.114 213.347,323.089 210.300,324.519 208.337 L 325.304 207.259 328.407 210.173 C 331.696 213.262,335.744 215.581,340.592 217.155 C 343.927 218.238,343.903 218.096,340.266 215.283 C 334.483 210.809,333.425 206.807,338.388 208.178 C 345.703 210.199,352.983 211.719,355.349 211.719 C 357.170 211.719,357.186 210.301,355.371 209.684 C 354.673 209.447,352.080 208.189,349.609 206.889 C 347.139 205.590,342.662 203.288,339.661 201.775 L 334.205 199.023 333.328 196.289 C 332.096 192.446,331.484 186.564,331.610 179.792 C 331.637 178.317,331.907 177.856,334.125 175.496 C 338.463 170.880,339.730 167.439,338.271 164.236 C 337.271 162.040,337.511 161.901,335.139 166.045 C 332.837 170.069,331.865 170.805,330.250 169.747 C 329.409 169.196,329.267 168.880,329.482 168.032 C 330.639 163.454,330.002 157.779,328.530 159.553 M54.553 192.452 C 54.394 192.611,54.279 197.319,54.298 202.914 C 54.317 208.508,54.324 213.301,54.315 213.563 C 54.298 214.004,50.440 216.016,49.611 216.016 C 49.410 216.016,48.668 216.266,47.962 216.573 C 47.257 216.880,46.347 217.235,45.940 217.363 C 44.005 217.973,45.945 217.887,49.055 217.225 C 54.580 216.049,55.684 216.026,55.571 217.090 C 55.458 218.157,55.366 218.154,57.682 217.153 C 59.566 216.339,60.975 216.308,65.234 216.987 C 66.443 217.180,66.353 217.089,64.458 216.201 C 60.305 214.255,60.547 215.067,60.547 203.057 L 60.547 192.578 58.235 192.578 C 56.964 192.578,55.680 192.485,55.383 192.371 C 55.085 192.257,54.712 192.293,54.553 192.452 M105.241 205.827 C 105.151 205.916,105.078 209.017,105.078 212.718 L 105.078 219.446 103.516 220.072 C 101.411 220.914,101.547 221.248,103.871 220.940 C 105.260 220.756,105.834 220.823,105.955 221.183 C 106.090 221.584,106.387 221.585,107.491 221.189 C 108.244 220.919,109.459 220.801,110.191 220.928 L 111.523 221.158 110.547 220.353 C 110.010 219.911,109.438 219.545,109.277 219.540 C 109.116 219.535,108.984 216.411,108.984 212.598 L 108.984 205.664 107.194 205.664 C 106.209 205.664,105.330 205.737,105.241 205.827 M326.172 271.680 C 327.989 273.506,329.563 275.000,329.670 275.000 C 329.778 275.000,328.379 273.506,326.563 271.680 C 324.746 269.854,323.172 268.359,323.064 268.359 C 322.957 268.359,324.355 269.854,326.172 271.680 M356.445 301.953 C 358.154 303.672,359.640 305.078,359.747 305.078 C 359.855 305.078,358.545 303.672,356.836 301.953 C 355.127 300.234,353.641 298.828,353.534 298.828 C 353.427 298.828,354.737 300.234,356.445 301.953 M281.250 302.539 C 283.067 304.365,284.641 305.859,284.748 305.859 C 284.856 305.859,283.457 304.365,281.641 302.539 C 279.824 300.713,278.250 299.219,278.142 299.219 C 278.035 299.219,279.433 300.713,281.250 302.539 " stroke="none" fill="#895d3c" fill-rule="evenodd"></path><path id="SvgjsPath1003" d="M119.922 207.372 C 119.922 207.606,120.405 207.909,120.996 208.046 C 123.342 208.588,127.984 209.807,128.906 210.122 C 129.443 210.306,130.586 210.652,131.445 210.891 C 153.043 216.893,172.268 226.217,179.782 234.334 C 190.514 245.926,182.794 259.104,160.987 266.417 L 155.273 268.333 183.644 268.346 L 212.015 268.359 213.368 266.699 C 214.111 265.786,215.386 264.032,216.199 262.801 L 217.679 260.562 217.681 249.519 L 217.683 238.477 214.995 235.595 C 209.146 229.325,196.846 222.823,182.031 218.169 C 177.472 216.737,169.987 214.599,167.188 213.929 C 157.208 211.542,157.218 211.544,150.000 210.140 C 137.318 207.674,134.573 207.310,127.246 207.129 C 122.114 207.001,119.922 207.074,119.922 207.372 " stroke="none" fill="#53a2db" fill-rule="evenodd"></path><path id="SvgjsPath1002" d="M355.371 107.539 C 354.780 107.772,354.297 108.105,354.297 108.279 C 354.297 108.452,354.016 108.594,353.674 108.594 C 353.331 108.594,352.583 108.901,352.012 109.277 C 349.987 110.610,349.402 110.958,348.363 111.447 C 346.996 112.090,347.433 112.739,349.414 113.007 C 352.368 113.407,353.917 113.853,355.957 114.893 C 356.587 115.214,356.641 114.918,356.641 111.136 C 356.641 108.878,356.597 107.050,356.543 107.073 C 356.489 107.096,355.962 107.305,355.371 107.539 M276.758 131.731 C 270.901 136.427,268.211 140.022,264.547 148.047 C 262.998 151.439,262.109 154.865,262.109 157.441 C 262.109 159.693,262.228 159.660,258.750 158.398 C 257.270 157.861,255.433 157.422,254.670 157.422 C 253.906 157.422,253.064 157.205,252.799 156.940 C 252.130 156.271,239.263 156.283,238.593 156.954 C 238.336 157.211,237.204 157.422,236.078 157.422 C 234.952 157.422,233.922 157.598,233.789 157.813 C 233.656 158.027,233.116 158.203,232.589 158.203 C 232.061 158.203,231.325 158.358,230.952 158.547 C 230.579 158.735,229.307 159.202,228.125 159.583 C 219.701 162.302,208.123 171.238,204.735 177.637 C 204.089 178.857,203.444 178.745,201.164 177.019 C 199.033 175.407,195.329 173.326,193.750 172.855 C 193.213 172.695,192.510 172.344,192.188 172.075 C 191.107 171.172,186.954 169.866,182.031 168.879 C 167.429 165.954,153.718 170.231,142.882 181.091 L 139.505 184.475 138.893 183.010 C 138.557 182.204,138.281 181.245,138.281 180.879 C 138.281 179.927,135.696 173.470,135.011 172.709 C 134.695 172.358,134.306 171.543,134.148 170.898 C 132.977 166.123,122.072 152.325,116.406 148.448 C 115.225 147.639,113.502 146.346,112.579 145.575 C 110.918 144.186,101.710 139.453,100.670 139.453 C 100.373 139.453,100.010 139.333,99.862 139.185 C 99.500 138.823,96.820 137.904,96.105 137.897 C 95.789 137.893,94.382 137.554,92.980 137.142 C 89.469 136.110,86.652 135.602,83.203 135.379 C 81.592 135.275,79.860 135.069,79.355 134.922 C 78.490 134.669,78.516 134.765,79.801 136.565 C 81.450 138.874,83.984 143.601,83.984 144.368 C 83.984 144.673,84.160 144.922,84.375 144.922 C 84.590 144.922,84.766 145.351,84.766 145.875 C 84.766 146.400,84.922 146.926,85.113 147.044 C 85.466 147.262,85.597 147.839,86.310 152.344 C 87.324 158.752,87.243 161.605,85.875 167.578 C 83.251 179.033,74.709 189.033,65.234 191.740 C 64.268 192.016,63.037 192.366,62.500 192.517 L 61.523 192.792 61.418 201.912 L 61.313 211.031 62.395 210.758 C 62.990 210.607,65.498 210.336,67.969 210.155 C 70.439 209.974,74.922 209.639,77.930 209.412 C 89.028 208.571,95.228 208.158,99.598 207.966 C 102.063 207.858,104.111 207.735,104.150 207.693 C 104.839 206.950,104.340 205.672,103.274 205.451 C 98.725 204.506,92.827 199.360,90.757 194.531 C 88.892 190.178,88.672 189.066,88.672 183.984 C 88.672 179.659,88.865 178.275,89.846 175.586 C 97.913 153.475,126.097 160.096,125.819 184.036 C 125.695 194.716,118.158 205.469,110.796 205.469 C 110.176 205.469,109.785 205.742,109.646 206.274 C 109.357 207.380,110.109 207.584,113.214 207.241 C 117.553 206.760,127.547 206.245,155.078 205.081 C 177.505 204.132,187.456 203.883,210.924 203.681 C 224.344 203.566,235.506 203.325,235.728 203.145 C 236.599 202.440,239.115 201.172,239.642 201.172 C 239.948 201.172,240.549 200.378,240.978 199.407 C 241.836 197.468,244.912 194.250,246.708 193.411 C 247.337 193.118,248.157 192.722,248.530 192.533 C 251.552 190.995,257.266 192.825,260.790 196.458 C 261.913 197.616,262.211 197.742,262.979 197.385 C 266.200 195.887,268.104 195.729,271.283 196.693 C 273.736 197.437,275.814 198.802,277.140 200.540 C 277.926 201.571,278.560 201.953,279.808 202.147 C 281.467 202.405,284.637 203.422,285.352 203.925 C 285.783 204.229,289.687 204.589,296.365 204.943 L 300.737 205.175 306.391 202.397 C 312.893 199.202,313.376 198.725,314.260 194.614 C 314.616 192.957,315.069 190.966,315.266 190.189 C 315.464 189.412,315.625 188.173,315.625 187.435 C 315.625 186.697,315.783 185.927,315.976 185.723 C 316.351 185.325,316.589 183.878,317.195 178.320 C 317.729 173.422,317.508 172.722,315.044 171.484 C 313.505 170.712,310.880 168.062,310.202 166.597 C 309.904 165.955,309.479 165.034,309.257 164.551 C 309.034 164.067,308.624 163.672,308.344 163.672 C 308.065 163.672,307.210 163.320,306.445 162.891 C 304.455 161.773,304.188 161.855,301.499 164.422 C 292.326 173.178,278.394 171.641,271.055 161.062 C 270.432 160.164,269.922 159.241,269.922 159.012 C 269.922 158.782,269.746 158.594,269.531 158.594 C 269.316 158.594,269.141 158.169,269.141 157.650 C 269.141 157.131,268.921 156.633,268.652 156.543 C 268.290 156.422,268.164 154.852,268.164 150.476 C 268.164 146.273,268.305 144.430,268.652 144.082 C 268.921 143.814,269.141 143.189,269.141 142.695 C 269.141 142.201,269.316 141.797,269.531 141.797 C 269.746 141.797,269.922 141.445,269.922 141.016 C 269.922 140.586,270.098 140.234,270.313 140.234 C 270.527 140.234,270.703 139.985,270.703 139.681 C 270.703 139.377,270.841 139.069,271.010 138.997 C 271.179 138.926,271.730 138.280,272.234 137.562 C 272.738 136.844,274.446 135.299,276.029 134.129 C 277.903 132.742,278.906 131.733,278.906 131.235 C 278.906 130.195,278.581 130.270,276.758 131.731 M330.852 158.017 C 330.509 158.430,330.425 159.412,330.577 161.239 C 330.790 163.798,330.482 167.093,329.903 168.441 C 329.686 168.945,329.856 169.168,330.600 169.355 C 331.979 169.701,332.756 169.147,333.981 166.947 C 334.565 165.898,335.420 164.375,335.881 163.562 C 337.344 160.984,337.069 160.061,334.418 158.648 C 331.788 157.247,331.529 157.201,330.852 158.017 M316.992 164.844 C 315.448 165.056,315.285 165.139,316.211 165.240 C 318.507 165.492,319.274 165.421,319.434 164.940 C 319.523 164.672,319.450 164.481,319.271 164.514 C 319.092 164.548,318.066 164.696,316.992 164.844 M338.932 168.620 C 338.789 168.763,338.672 169.186,338.672 169.559 C 338.672 170.774,336.999 173.413,335.072 175.237 C 332.191 177.965,331.902 178.758,332.188 183.169 C 332.657 190.416,333.477 196.484,333.987 196.484 C 334.147 196.484,334.383 197.012,334.512 197.657 C 334.698 198.588,335.130 199.003,336.611 199.673 C 339.693 201.069,343.870 203.117,345.117 203.844 C 350.619 207.051,353.553 208.516,355.957 209.256 C 356.601 209.454,356.641 208.409,356.641 191.061 C 356.641 180.938,356.550 172.656,356.440 172.656 C 356.330 172.656,355.934 172.810,355.561 172.999 C 352.112 174.742,348.597 174.612,344.336 172.584 C 342.573 171.746,339.844 169.439,339.844 168.788 C 339.844 168.312,339.335 168.217,338.932 168.620 M43.359 200.641 L 43.359 212.585 44.824 212.325 C 45.630 212.182,47.915 211.970,49.902 211.854 L 53.516 211.643 53.516 202.137 L 53.516 192.631 52.637 192.395 C 49.826 191.643,48.591 191.234,48.262 190.948 C 48.058 190.770,47.645 190.625,47.345 190.625 C 47.046 190.625,46.334 190.302,45.763 189.907 C 43.202 188.134,43.359 187.432,43.359 200.641 " stroke="none" fill="#d6edf5" fill-rule="evenodd"></path><path id="SvgjsPath1001" d="M88.281 80.755 C 81.478 83.365,69.541 95.745,65.206 104.688 C 62.087 111.122,61.328 112.875,61.328 113.647 C 61.328 114.963,60.630 114.600,57.680 111.754 C 53.210 107.440,44.246 101.327,43.493 102.080 C 43.414 102.159,43.395 108.228,43.452 115.567 L 43.555 128.910 45.383 127.936 C 55.266 122.674,67.385 124.330,75.586 132.064 C 78.593 134.900,79.707 135.353,83.984 135.489 C 86.743 135.576,89.028 135.997,92.980 137.148 C 94.382 137.556,95.789 137.893,96.105 137.897 C 96.820 137.904,99.500 138.823,99.862 139.185 C 100.010 139.333,100.373 139.453,100.670 139.453 C 101.710 139.453,110.918 144.186,112.579 145.575 C 113.502 146.346,115.225 147.639,116.406 148.448 C 122.072 152.325,132.977 166.123,134.148 170.898 C 134.306 171.543,134.695 172.358,135.011 172.709 C 135.696 173.470,138.281 179.927,138.281 180.879 C 138.281 181.245,138.557 182.204,138.893 183.010 L 139.505 184.475 142.882 181.091 C 153.718 170.231,167.429 165.954,182.031 168.879 C 186.954 169.866,191.107 171.172,192.188 172.075 C 192.510 172.344,193.213 172.695,193.750 172.855 C 195.329 173.326,199.033 175.407,201.164 177.019 C 203.444 178.745,204.089 178.857,204.735 177.637 C 208.123 171.238,219.701 162.302,228.125 159.583 C 229.307 159.202,230.579 158.735,230.952 158.547 C 231.325 158.358,232.061 158.203,232.589 158.203 C 233.116 158.203,233.656 158.027,233.789 157.813 C 233.922 157.598,234.952 157.422,236.078 157.422 C 237.204 157.422,238.336 157.211,238.593 156.954 C 239.263 156.283,252.130 156.271,252.799 156.940 C 253.064 157.205,253.906 157.422,254.670 157.422 C 255.433 157.422,257.270 157.861,258.750 158.398 C 262.228 159.660,262.109 159.693,262.109 157.441 C 262.109 151.249,266.916 141.252,272.641 135.535 C 277.063 131.119,278.901 129.835,278.912 131.152 C 278.917 131.736,278.973 131.750,279.294 131.250 C 279.501 130.928,279.582 130.381,279.474 130.036 C 279.367 129.690,279.547 129.185,279.874 128.914 C 280.201 128.642,280.469 128.253,280.469 128.050 C 280.469 127.005,284.230 122.541,286.328 121.096 C 287.080 120.579,287.783 120.056,287.891 119.935 C 288.139 119.656,291.218 118.193,292.846 117.581 C 293.530 117.324,295.727 117.085,297.728 117.049 C 301.290 116.986,301.370 116.963,301.499 116.012 C 302.103 111.548,308.117 103.891,312.988 101.382 C 314.224 100.746,315.234 100.131,315.235 100.015 C 315.235 99.899,315.697 99.778,316.262 99.745 C 316.827 99.712,317.398 99.537,317.531 99.355 C 317.665 99.172,318.081 99.009,318.457 98.991 C 320.281 98.904,320.734 98.804,320.564 98.528 C 320.194 97.930,327.859 97.986,329.852 98.595 C 330.909 98.918,331.921 99.092,332.101 98.980 C 332.281 98.869,332.713 99.063,333.061 99.412 C 333.409 99.760,333.924 99.957,334.205 99.849 C 334.486 99.741,334.774 99.829,334.845 100.043 C 334.917 100.258,335.236 100.472,335.554 100.519 C 337.611 100.826,342.802 105.501,345.388 109.375 C 346.464 110.986,347.458 112.393,347.597 112.500 C 347.737 112.607,347.717 112.531,347.552 112.331 C 347.387 112.130,347.739 111.738,348.333 111.459 C 349.400 110.959,349.978 110.616,352.012 109.277 C 352.583 108.901,353.331 108.594,353.674 108.594 C 354.016 108.594,354.297 108.457,354.297 108.289 C 354.297 108.121,354.837 107.780,355.498 107.530 L 356.699 107.077 356.571 96.995 C 356.412 84.600,356.091 83.429,352.370 81.684 L 350.195 80.664 321.340 80.664 L 292.484 80.664 291.848 82.292 C 291.497 83.187,291.116 84.014,291.001 84.129 C 290.885 84.245,288.249 84.072,285.141 83.745 C 266.031 81.734,255.298 85.382,242.066 98.388 C 239.743 100.671,237.552 103.022,237.196 103.613 C 236.342 105.033,236.421 105.060,233.004 102.207 C 230.198 99.865,225.252 96.875,224.183 96.875 C 223.914 96.875,223.417 96.634,223.078 96.340 C 222.371 95.728,216.586 93.923,214.258 93.589 C 208.085 92.703,203.373 92.336,201.700 92.611 C 200.657 92.782,198.858 92.933,197.702 92.945 C 196.545 92.958,194.875 93.158,193.991 93.390 C 193.106 93.622,191.680 93.994,190.820 94.217 C 184.780 95.785,179.546 98.892,176.165 102.917 C 174.523 104.872,174.076 104.800,172.988 102.407 C 172.127 100.515,169.750 96.864,168.496 95.508 C 168.099 95.078,166.849 93.576,165.719 92.169 C 163.312 89.173,158.122 84.333,154.884 82.065 L 152.605 80.469 120.736 80.500 C 103.208 80.517,88.604 80.632,88.281 80.755 M79.297 136.328 C 79.756 136.973,80.219 137.500,80.327 137.500 C 80.434 137.500,80.146 136.973,79.688 136.328 C 79.229 135.684,78.765 135.156,78.658 135.156 C 78.550 135.156,78.838 135.684,79.297 136.328 M273.218 136.426 L 272.070 137.695 273.340 136.548 C 274.038 135.917,274.609 135.346,274.609 135.278 C 274.609 134.977,274.287 135.242,273.218 136.426 M268.509 144.313 C 268.391 144.623,268.362 145.194,268.446 145.583 C 268.542 146.024,268.676 145.812,268.802 145.020 C 269.015 143.689,268.877 143.356,268.509 144.313 M86.028 151.953 C 86.028 152.705,86.109 153.013,86.207 152.637 C 86.305 152.261,86.305 151.646,86.207 151.270 C 86.109 150.894,86.028 151.201,86.028 151.953 M268.359 155.664 C 268.359 156.201,268.511 156.641,268.696 156.641 C 268.881 156.641,268.948 156.201,268.846 155.664 C 268.743 155.127,268.592 154.688,268.509 154.688 C 268.427 154.688,268.359 155.127,268.359 155.664 M86.847 159.180 C 86.849 160.684,86.919 161.251,87.004 160.441 C 87.088 159.630,87.087 158.400,87.001 157.706 C 86.914 157.013,86.845 157.676,86.847 159.180 M111.719 162.631 C 111.719 162.732,112.286 163.012,112.979 163.254 C 113.673 163.495,114.068 163.532,113.858 163.336 C 113.413 162.919,111.719 162.361,111.719 162.631 M86.028 165.625 C 86.028 166.377,86.109 166.685,86.207 166.309 C 86.305 165.933,86.305 165.317,86.207 164.941 C 86.109 164.565,86.028 164.873,86.028 165.625 M299.023 166.260 C 298.321 166.857,298.177 167.095,298.665 166.853 C 299.381 166.497,300.724 165.211,300.341 165.248 C 300.261 165.256,299.668 165.711,299.023 166.260 M95.099 167.285 L 93.555 168.945 95.215 167.401 C 96.759 165.965,97.055 165.625,96.759 165.625 C 96.695 165.625,95.948 166.372,95.099 167.285 M330.334 169.629 C 330.433 169.790,330.846 169.922,331.250 169.922 C 331.654 169.922,332.067 169.790,332.166 169.629 C 332.266 169.468,331.853 169.336,331.250 169.336 C 330.647 169.336,330.234 169.468,330.334 169.629 M284.901 170.014 C 285.149 170.171,286.494 170.301,287.891 170.301 C 289.287 170.301,290.633 170.171,290.881 170.014 C 291.129 169.856,289.783 169.727,287.891 169.727 C 285.998 169.727,284.653 169.856,284.901 170.014 M347.750 173.895 C 348.021 174.066,349.297 174.196,350.586 174.182 C 353.437 174.152,353.018 173.939,349.704 173.734 C 348.359 173.650,347.480 173.723,347.750 173.895 M317.278 179.297 C 317.278 180.049,317.359 180.356,317.457 179.980 C 317.555 179.604,317.555 178.989,317.457 178.613 C 317.359 178.237,317.278 178.545,317.278 179.297 M79.297 181.250 C 78.838 181.895,78.550 182.422,78.658 182.422 C 78.765 182.422,79.229 181.895,79.688 181.250 C 80.146 180.605,80.434 180.078,80.327 180.078 C 80.219 180.078,79.756 180.605,79.297 181.250 M315.885 185.807 C 315.742 185.951,315.647 186.785,315.674 187.663 L 315.723 189.258 316.015 187.500 C 316.324 185.640,316.304 185.388,315.885 185.807 M88.672 188.063 C 88.672 188.587,88.816 189.105,88.992 189.214 C 89.168 189.323,89.236 188.894,89.143 188.261 C 88.938 186.865,88.672 186.753,88.672 188.063 M332.513 190.234 C 332.513 190.986,332.593 191.294,332.691 190.918 C 332.789 190.542,332.789 189.927,332.691 189.551 C 332.593 189.175,332.513 189.482,332.513 190.234 M53.020 192.469 C 53.372 192.719,53.532 195.314,53.617 202.167 L 53.733 211.523 53.722 201.985 C 53.713 193.845,53.625 192.424,53.125 192.288 C 52.699 192.172,52.670 192.221,53.020 192.469 M61.355 192.740 C 61.078 193.074,60.953 194.196,61.038 195.573 L 61.180 197.852 61.254 195.430 C 61.310 193.588,61.492 192.912,62.012 192.609 C 62.388 192.390,62.497 192.206,62.255 192.199 C 62.013 192.193,61.608 192.436,61.355 192.740 M248.693 192.480 C 248.594 192.642,249.973 192.773,251.758 192.773 C 253.543 192.773,254.801 192.644,254.553 192.486 C 253.958 192.108,248.926 192.103,248.693 192.480 M265.315 196.426 C 265.033 196.605,265.810 196.676,267.073 196.586 C 270.159 196.367,270.564 196.161,267.969 196.131 C 266.787 196.117,265.593 196.250,265.315 196.426 M334.043 197.657 C 334.620 199.313,335.119 199.471,334.607 197.835 C 334.374 197.092,334.060 196.484,333.909 196.484 C 333.758 196.484,333.818 197.012,334.043 197.657 M241.192 198.864 C 240.849 199.529,240.637 200.142,240.721 200.227 C 240.806 200.311,241.168 199.768,241.525 199.019 C 242.329 197.334,242.050 197.205,241.192 198.864 M275.000 198.560 C 275.000 198.627,275.571 199.198,276.270 199.829 L 277.539 200.977 276.392 199.707 C 275.322 198.524,275.000 198.258,275.000 198.560 M118.927 200.879 L 117.383 202.539 119.043 200.995 C 120.587 199.559,120.883 199.219,120.587 199.219 C 120.523 199.219,119.776 199.966,118.927 200.879 M239.648 201.060 C 238.452 201.348,238.084 201.882,239.234 201.663 C 239.791 201.556,240.342 201.314,240.459 201.125 C 240.575 200.936,240.617 200.802,240.550 200.827 C 240.484 200.851,240.078 200.956,239.648 201.060 M61.084 206.836 C 61.085 209.199,61.149 210.116,61.227 208.872 C 61.304 207.629,61.304 205.696,61.225 204.576 C 61.146 203.455,61.083 204.473,61.084 206.836 " stroke="none" fill="#bee0f3" fill-rule="evenodd"></path><path id="SvgjsPath1000" d="M48.276 81.437 C 45.758 82.472,45.652 82.575,44.440 85.156 C 43.715 86.702,43.595 87.812,43.447 94.352 L 43.279 101.789 45.175 102.745 C 49.741 105.048,53.744 107.929,57.680 111.743 C 60.628 114.599,61.328 114.964,61.328 113.647 C 61.328 112.875,62.087 111.122,65.206 104.688 C 68.034 98.855,73.583 91.778,78.617 87.587 C 81.723 85.001,87.073 81.218,88.281 80.755 C 88.604 80.632,80.254 80.521,69.727 80.509 L 50.586 80.487 48.276 81.437 M154.884 82.065 C 158.122 84.333,163.312 89.173,165.719 92.169 C 166.849 93.576,168.099 95.078,168.496 95.508 C 169.750 96.864,172.127 100.515,172.988 102.407 C 174.076 104.800,174.523 104.872,176.165 102.917 C 179.546 98.892,184.780 95.785,190.820 94.217 C 191.680 93.994,193.106 93.622,193.991 93.390 C 194.875 93.158,196.545 92.958,197.702 92.945 C 198.858 92.933,200.657 92.782,201.700 92.611 C 203.373 92.336,208.085 92.703,214.258 93.589 C 216.586 93.923,222.371 95.728,223.078 96.340 C 223.417 96.634,223.914 96.875,224.183 96.875 C 225.252 96.875,230.198 99.865,233.004 102.207 C 236.421 105.060,236.342 105.033,237.196 103.613 C 237.552 103.022,239.743 100.671,242.066 98.388 C 255.301 85.380,266.030 81.734,285.153 83.746 C 288.267 84.074,290.921 84.218,291.052 84.065 C 291.182 83.913,291.577 83.042,291.930 82.129 L 292.572 80.469 222.588 80.469 L 152.605 80.469 154.884 82.065 M321.291 98.406 C 320.863 98.573,321.965 98.626,323.741 98.523 C 332.097 98.039,340.259 102.251,345.119 109.556 C 347.693 113.425,348.328 113.982,346.193 110.499 C 343.433 105.996,338.786 101.815,334.766 100.216 C 329.825 98.252,323.770 97.438,321.291 98.406 M317.188 99.560 C 314.323 100.481,309.766 102.996,309.766 103.656 C 309.766 103.845,310.337 103.581,311.035 103.070 C 313.059 101.589,315.258 100.510,317.676 99.812 C 318.911 99.455,319.922 99.088,319.922 98.996 C 319.922 98.732,319.486 98.822,317.188 99.560 M306.831 106.348 C 304.901 108.472,302.306 112.662,302.363 113.563 C 302.374 113.730,302.972 112.725,303.693 111.328 C 304.414 109.932,306.002 107.690,307.222 106.348 C 308.442 105.005,309.353 103.906,309.245 103.906 C 309.138 103.906,308.052 105.005,306.831 106.348 M295.117 117.199 C 294.043 117.357,292.725 117.645,292.188 117.839 C 290.084 118.600,287.891 119.732,287.891 120.059 C 287.891 120.248,288.286 120.144,288.770 119.829 C 290.879 118.454,294.608 117.495,297.908 117.480 C 299.716 117.472,301.259 117.359,301.337 117.229 C 301.544 116.884,297.394 116.865,295.117 117.199 M284.568 122.542 C 282.177 124.932,279.680 128.648,279.693 129.797 C 279.696 130.059,280.179 129.319,280.767 128.153 C 281.355 126.987,282.867 124.922,284.127 123.563 C 286.614 120.882,286.908 120.202,284.568 122.542 M52.148 125.391 C 51.153 125.818,52.180 125.818,53.516 125.391 C 54.301 125.139,54.339 125.076,53.711 125.066 C 53.281 125.060,52.578 125.206,52.148 125.391 M60.970 125.143 C 61.060 125.222,61.836 125.394,62.695 125.525 C 63.784 125.691,64.021 125.656,63.477 125.409 C 62.727 125.069,60.634 124.848,60.970 125.143 M66.188 126.571 C 67.249 126.986,68.179 127.263,68.255 127.188 C 68.441 127.001,65.339 125.777,64.738 125.800 C 64.474 125.810,65.126 126.157,66.188 126.571 M45.762 127.767 C 44.405 128.429,43.371 129.048,43.466 129.143 C 43.616 129.293,47.962 127.168,48.401 126.730 C 48.769 126.362,48.119 126.617,45.762 127.767 M70.313 128.266 C 70.313 128.368,70.972 128.853,71.777 129.343 C 72.583 129.833,74.398 131.297,75.811 132.597 C 78.361 134.944,78.359 134.941,75.597 132.227 C 73.180 129.851,70.313 127.702,70.313 128.266 M273.416 136.621 L 272.070 138.086 273.535 136.740 C 274.899 135.487,275.180 135.156,274.881 135.156 C 274.816 135.156,274.157 135.815,273.416 136.621 M86.419 156.641 C 86.419 157.393,86.499 157.700,86.597 157.324 C 86.696 156.948,86.696 156.333,86.597 155.957 C 86.499 155.581,86.419 155.889,86.419 156.641 M86.419 160.938 C 86.419 161.689,86.499 161.997,86.597 161.621 C 86.696 161.245,86.696 160.630,86.597 160.254 C 86.499 159.878,86.419 160.186,86.419 160.938 M273.047 163.403 C 273.047 163.471,273.618 164.042,274.316 164.673 L 275.586 165.820 274.439 164.551 C 273.369 163.367,273.047 163.102,273.047 163.403 M315.923 164.729 C 316.408 164.823,317.112 164.819,317.485 164.722 C 317.858 164.624,317.461 164.547,316.602 164.552 C 315.742 164.556,315.437 164.636,315.923 164.729 M317.676 165.894 C 318.052 165.993,318.667 165.993,319.043 165.894 C 319.419 165.796,319.111 165.716,318.359 165.716 C 317.607 165.716,317.300 165.796,317.676 165.894 M339.844 168.872 C 339.844 168.939,340.415 169.511,341.113 170.142 L 342.383 171.289 341.236 170.020 C 340.166 168.836,339.844 168.570,339.844 168.872 M315.234 171.202 C 315.234 171.276,315.806 171.756,316.504 172.267 C 317.289 172.842,317.562 172.936,317.220 172.514 C 316.699 171.874,315.234 170.905,315.234 171.202 M331.752 183.789 C 331.755 184.863,331.831 185.256,331.921 184.663 C 332.011 184.069,332.008 183.190,331.916 182.709 C 331.823 182.229,331.749 182.715,331.752 183.789 M76.353 184.473 L 74.414 186.523 76.465 184.585 C 77.593 183.519,78.516 182.596,78.516 182.534 C 78.516 182.243,78.154 182.567,76.353 184.473 M54.075 202.148 C 54.075 207.305,54.131 209.360,54.198 206.716 C 54.266 204.072,54.266 199.853,54.198 197.341 C 54.130 194.829,54.074 196.992,54.075 202.148 M61.066 200.195 C 61.067 201.699,61.138 202.267,61.223 201.456 C 61.307 200.646,61.306 199.415,61.219 198.722 C 61.133 198.028,61.064 198.691,61.066 200.195 M118.476 206.951 C 118.042 207.226,130.065 207.155,131.836 206.872 C 132.266 206.803,129.541 206.726,125.781 206.700 C 122.021 206.674,118.734 206.787,118.476 206.951 " stroke="none" fill="#a3d6ef" fill-rule="evenodd"></path></g></svg><style>@media (prefers-color-scheme: light) { :root { filter: none; } }
</style></svg>